<svg xmlns="http://www.w3.org/2000/svg" viewBox="200 115 150 150" width="128" height="128">
	<path d="M311.98097,237.39747c5.28416,-3.8945 4.72818,-4.4493 -5.28445,1.94739c-14.4631,10.01086 -46.72372,8.0667 -64.80127,-11.9612c-18.07756,-20.02348 -13.35262,-41.9926 -8.0667,-54.78895c5.28445,-12.7934 37.54624,-21.13573 35.60061,-20.02496c-0.21857,0.12473 -0.57363,0.32682 -1.03018,0.58628c-3.61387,2.05506 -13.58736,7.72635 -12.59955,7.47866c1.11372,-0.27711 13.9086,-3.89156 20.85981,-6.95121c5.18532,-2.28128 9.13453,-2.08831 14.15423,-1.84297c1.70941,0.08355 3.54297,0.17297 5.59186,0.17297c4.53167,0 5.72747,1.84355 6.74352,3.41c0.79249,1.22198 1.47584,2.2754 3.54767,2.15332c4.72818,-0.2774 8.6215,2.2245 11.12341,4.72818c2.50485,2.50191 4.17337,3.33676 4.72965,6.39641c0.55775,3.06141 5.8419,8.3441 7.78636,8.3441c0.14356,0 0.28123,-0.00147 0.4139,-0.00294c1.66735,-0.01824 2.57486,-0.02824 5.1506,3.06259c1.43613,1.72501 2.05594,5.45448 2.51132,8.19525c0.42596,2.56338 0.70806,4.2625 1.38054,2.64899c0.81691,-1.95446 0.38977,-9.64021 0.06384,-15.50094c-0.23004,-4.14102 -0.40977,-7.37069 -0.06384,-7.02416c0.20062,0.20062 0.44949,1.11019 0.77807,2.30981c1.03636,3.78507 2.86373,10.458 6.45495,6.86914c4.7267,-4.72965 -9.73523,-20.58417 -13.07198,-24.19862c-2.57221,-2.78549 4.26486,0.2068 7.15889,1.47349c0.8625,0.37742 1.37465,0.60158 1.18344,0.47391c-0.83514,-0.55627 -8.62121,-9.73346 -3.33852,-5.56303c5.28592,4.17191 -1.66706,-6.95151 -8.06199,-10.2915c-6.39964,-3.33529 -2.50367,-5.56009 -2.50367,-5.56009c0,0 11.68115,5.28298 3.89185,-2.78078c-7.78782,-8.06664 -41.99437,-15.85444 -48.11367,-16.13175c-6.11783,-0.27734 -51.4519,1.11231 -72.03301,38.93601c-20.58414,37.82364 -3.33849,68.41868 -3.33849,68.41868c0,0 -0.27731,-4.72965 -0.55463,-8.90008c11.95676,34.48512 46.16771,46.16774 46.16771,46.16774c-3.05965,-1.67 -3.33705,-2.50367 -4.45254,-5.00558c26.14426,9.73198 30.59532,5.56155 27.53567,5.00558c-3.06141,-0.55627 2.50337,-0.55627 2.50337,-0.55627c-17.80015,-0.2774 -38.9359,-9.17748 -50.89738,-29.20244c42.80009,31.12542 69.25235,19.19011 72.86798,17.52305c2.42719,-1.12137 0.84221,-1.23963 0.29711,-1.28052c-0.26652,-0.01971 -0.28417,-0.02118 0.53804,-0.11208c2.50337,-0.2774 6.1193,-4.4493 6.1193,-4.4493l2.2248,-2.2248c2.44042,-1.76296 1.44319,-1.34465 0.39242,-0.90398c-1.10402,0.46302 -2.26686,0.95105 0.44096,-1.04342z" fill="#000000" stroke="none"></path>
</svg>
